<?xml version="1.0" encoding="utf-8"?>
<!-- Generator: Adobe Illustrator 21.1.0, SVG Export Plug-In . SVG Version: 6.00 Build 0)  -->
<svg version="1.1" id="Layer_1" xmlns="http://www.w3.org/2000/svg" xmlns:xlink="http://www.w3.org/1999/xlink" x="0px" y="0px"
	 viewBox="0 0 964 100" style="enable-background:new 0 0 964 100;" xml:space="preserve">
<style type="text/css">
	.st0{fill:#007AFF;}
	.st1{font-family:'CenturyGothic';}
	.st2{font-size:48px;}
	.st3{letter-spacing:44;}
	.st4{font-size:36px;}
	.st5{letter-spacing:8;}
</style>
<text transform="matrix(0.9994 -3.489950e-02 3.489950e-02 0.9994 15.3481 46.4688)"><tspan x="0" y="0" class="st0 st1 st2 st3">B</tspan><tspan x="72.4" y="2.6" class="st0 st1 st2 st3">R</tspan><tspan x="146.3" y="5.2" class="st0 st1 st2 st3">A</tspan><tspan x="226.6" y="8.1" class="st0 st1 st2 st3">N</tspan><tspan x="306.9" y="10.9" class="st0 st1 st2 st3">D</tspan><tspan x="387.5" y="13.8" class="st0 st1 st2 st3">O</tspan><tspan x="474" y="16.7" class="st0 st1 st2 st3">N</tspan><tspan x="554.3" y="19.1" class="st0 st1 st2 st3"> </tspan><tspan x="612.4" y="21.6" class="st0 st1 st2 st3">G</tspan><tspan x="699.1" y="24.1" class="st0 st1 st2 st3">I</tspan><tspan x="754.8" y="26.5" class="st0 st1 st2 st3">N</tspan><tspan x="835.1" y="29.1" class="st0 st1 st2 st3">E</tspan><tspan x="905.6" y="31.6" class="st0 st1 st2 st3">S</tspan></text>
<text transform="matrix(0.9994 -3.489950e-02 3.489950e-02 0.9994 29.0894 84.2705)"><tspan x="0" y="0" class="st1 st4 st5">D</tspan><tspan x="35.2" y="1.1" class="st1 st4 st5">E</tspan><tspan x="62.9" y="2.2" class="st1 st4 st5">V</tspan><tspan x="96.6" y="3.2" class="st1 st4 st5">E</tspan><tspan x="124.4" y="4.2" class="st1 st4 st5">L</tspan><tspan x="149.4" y="5.3" class="st1 st4 st5">O</tspan><tspan x="189.1" y="6.5" class="st1 st4 st5">P</tspan><tspan x="218.9" y="7.5" class="st1 st4 st5">E</tspan><tspan x="246.6" y="8.5" class="st1 st4 st5">R</tspan><tspan x="276.9" y="9.4" class="st1 st4 st5"> </tspan><tspan x="295.3" y="10.2" class="st1 st4 st5">\</tspan><tspan x="325.5" y="11.1" class="st1 st4 st5"> </tspan><tspan x="343.9" y="12" class="st1 st4 st5">D</tspan><tspan x="379.1" y="13.1" class="st1 st4 st5">E</tspan><tspan x="406.8" y="14.1" class="st1 st4 st5">S</tspan><tspan x="433.2" y="14.8" class="st1 st4 st5">I</tspan><tspan x="449.7" y="15.8" class="st1 st4 st5">G</tspan><tspan x="489.6" y="17.1" class="st1 st4 st5">N</tspan><tspan x="524.6" y="18.2" class="st1 st4 st5">E</tspan><tspan x="552.3" y="19.2" class="st1 st4 st5">R</tspan><tspan x="582.6" y="20.1" class="st1 st4 st5"> </tspan><tspan x="601" y="20.9" class="st1 st4 st5">\</tspan><tspan x="631.2" y="21.7" class="st1 st4 st5"> </tspan><tspan x="649.6" y="22.6" class="st1 st4 st5">P</tspan><tspan x="679.4" y="23.6" class="st1 st4 st5">R</tspan><tspan x="709.6" y="24.9" class="st1 st4 st5">O</tspan><tspan x="749.3" y="26.2" class="st1 st4 st5">D</tspan><tspan x="784.5" y="27.3" class="st1 st4 st5">U</tspan><tspan x="816.5" y="28.6" class="st1 st4 st5">C</tspan><tspan x="854.2" y="29.7" class="st1 st4 st5">E</tspan><tspan x="881.9" y="30.7" class="st1 st4 st5">R</tspan></text>
</svg>
